<svg width="320" height="55" viewBox="0 0 320 55" fill="none" xmlns="http://www.w3.org/2000/svg">
<path d="M51.368 39.1044C53.928 40.0004 57.1707 40.4484 61.096 40.4484C62.5467 40.4484 63.6773 40.4271 64.488 40.3844C63.336 42.8591 62.4827 44.9071 61.928 46.5284C61.3733 48.1498 60.6693 50.3898 59.816 53.2484C57.2133 52.4804 54.504 51.3284 51.688 49.7924C48.9147 48.2564 46.44 46.4004 44.264 44.2244C42.3013 46.6991 40.0187 48.6831 37.416 50.1764C34.856 51.6698 31.592 52.9071 27.624 53.8884C25.064 49.9204 22.0347 45.8671 18.536 41.7284C19.5173 41.7711 20.904 41.7924 22.696 41.7924C25.9813 41.7924 28.6693 41.5791 30.76 41.1524C32.8933 40.7258 34.664 40.0431 36.072 39.1044H27.56V32.0004L26.344 31.8724V40.0644H17.576V18.3044C17.2347 20.1391 16.8293 21.6538 16.36 22.8484V53.3764H4.52V33.7284C3.496 34.1551 2.74933 34.4324 2.28 34.5604C2.32267 33.9631 2.344 33.0884 2.344 31.9364C2.344 27.4564 1.87467 23.6378 0.936 20.4804C2.64267 20.4378 3.90133 19.7978 4.712 18.5604C5.05333 17.9631 5.39467 16.5764 5.736 14.4004C6.12 12.2244 6.312 9.96311 6.312 7.61645C6.312 6.33645 6.248 5.09911 6.12 3.90445L18.728 3.96844C18.728 6.14444 18.664 8.42711 18.536 10.8164H23.08V4.60844H61.608L60.2 13.7604H63.272V21.3764H38.568L38.376 22.5284H63.016V29.8884H50.664C50.664 30.5711 50.6427 31.0618 50.6 31.3604H63.976V39.1044H51.368ZM26.344 12.4804V29.7604C27.1547 27.9684 27.688 26.1764 27.944 24.3844C28.2427 22.5924 28.4133 21.5898 28.456 21.3764H27.368V13.7604H48.04L48.232 12.4804H26.344ZM36.648 29.8884L36.008 31.3604H38.76L38.696 29.8884H36.648ZM123.496 40.4484C124.392 40.3631 126.12 40.1284 128.68 39.7444C127.699 41.4084 127.037 43.1791 126.696 45.0564C126.397 46.9338 126.12 49.4298 125.864 52.5444C118.184 52.8431 111.741 52.9924 106.536 52.9924C99.4107 52.9924 93.7147 52.6511 89.448 51.9684C85.1813 51.2858 81.448 50.1764 78.248 48.6404C76.2 50.0058 73.128 51.6698 69.032 53.6324L68.712 52.3524C67.9867 49.2378 67.3467 46.7204 66.792 44.8004C66.2373 42.8378 65.576 40.9818 64.808 39.2324C65.8747 38.9764 66.8773 38.6351 67.816 38.2084C68.7547 37.7818 69.5013 37.3551 70.056 36.9284V32.2564H66.216L66.28 21.6964H83.688V39.7444C84.0293 39.8298 85.2667 40.0644 87.4 40.4484C86.0773 38.6564 84.9893 37.2911 84.136 36.3524C88.7013 36.3524 92.9467 35.9471 96.872 35.1364H84.84V29.8244H92.776V28.7364H85.288V24.5124H92.776V23.4244H89.576C86.6747 23.4244 85.224 22.3151 85.224 20.0964V19.0724L84.584 21.0564C78.6107 19.3071 72.424 17.8778 66.024 16.7684L69.8 5.69645C75.9013 7.14711 81.0427 8.53378 85.224 9.85645V5.05645H105.192V16.2564H93.672V16.5124C93.672 17.2378 93.736 17.6644 93.864 17.7924C93.992 17.8778 94.2693 17.9204 94.696 17.9204C95.1653 17.9204 95.5067 17.9204 95.72 17.9204C96.2747 17.9204 96.6587 17.8351 96.872 17.6644C97.0853 17.4938 97.192 17.1311 97.192 16.5764L105.256 17.7284C105.256 20.1604 104.531 21.8244 103.08 22.7204H103.4V24.5124H107.944V22.9764C106.707 22.5071 106.088 21.5471 106.088 20.0964V12.6724H116.84V11.5844H106.088V5.05645H126.248V16.2564H114.728V16.5124C114.728 17.0671 114.749 17.4298 114.792 17.6004C114.877 17.7711 115.091 17.8778 115.432 17.9204C115.773 17.9204 116.243 17.9204 116.84 17.9204C117.267 17.9204 117.587 17.8351 117.8 17.6644C118.013 17.4938 118.12 17.1311 118.12 16.5764L127.016 17.7284C127.016 19.6911 126.461 21.1418 125.352 22.0804C124.243 22.9764 122.856 23.4244 121.192 23.4244H118.504V24.5124H126.376V28.7364H118.504V29.8244H126.888V35.1364H114.024C117.864 35.9471 122.131 36.3524 126.824 36.3524C125.672 37.5471 124.563 38.9124 123.496 40.4484ZM95.912 12.6724V11.5844H87.656L87.272 12.6724H95.912ZM107.944 28.7364H103.4V29.8244H107.944V28.7364ZM105.448 38.0164L107.24 35.1364H103.656L105.448 38.0164ZM105.704 41.4724C107.027 41.4724 108.968 41.4298 111.528 41.3444C109.907 40.8751 107.88 40.2351 105.448 39.4244C102.973 40.2778 100.947 40.9391 99.368 41.4084C100.648 41.4511 102.76 41.4724 105.704 41.4724ZM169.256 15.0404C169.213 21.3978 171.155 26.3898 175.08 30.0164C179.005 33.6431 185.021 36.2671 193.128 37.8884C191.933 39.8084 190.888 41.7924 189.992 43.8404C189.096 45.8884 188.093 48.4271 186.984 51.4564C186.728 52.0538 186.387 52.9498 185.96 54.1444C180.84 52.8218 176.061 50.5391 171.624 47.2964C167.187 44.0111 163.645 39.8938 161 34.9444C158.312 39.8511 154.728 43.9471 150.248 47.2324C145.811 50.5178 141.075 52.8218 136.04 54.1444C135.613 52.9498 135.272 52.0538 135.016 51.4564C133.907 48.4271 132.904 45.8884 132.008 43.8404C131.112 41.7924 130.067 39.8084 128.872 37.8884C136.936 36.3098 142.909 33.7071 146.792 30.0804C150.675 26.4538 152.637 21.4404 152.68 15.0404L152.744 3.58445L169.32 3.71244L169.256 15.0404ZM233 40.7684H254.248V52.6724H195.752V40.7684H217V37.4404H196.776V25.2164H217V21.8884H196.008V9.40845H216.936C215.016 8.64045 213.096 7.93645 211.176 7.29645L222.376 0.704445C224.68 1.47245 226.963 2.36845 229.224 3.39244C231.485 4.37378 234.472 5.71778 238.184 7.42445L234.728 9.40845H253.992V21.8884H233V25.2164H253.224V37.4404H233V40.7684ZM319.912 42.8804C318.973 44.5444 318.163 46.3151 317.48 48.1924C316.797 50.0698 316.285 51.7978 315.944 53.3764C311.037 51.7978 306.493 49.2164 302.312 45.6324L303.272 49.4724C299.56 50.1978 296.445 50.7738 293.928 51.2004C291.453 51.5844 287.677 52.1391 282.6 52.8644C282.344 50.7738 281.939 48.4271 281.384 45.8244C281.085 47.7871 280.595 49.2804 279.912 50.3044C279.272 51.3284 278.461 52.0324 277.48 52.4164C276.499 52.7578 275.24 52.9284 273.704 52.9284C270.376 52.9284 265.875 52.7791 260.2 52.4804C259.944 50.1764 259.645 48.0644 259.304 46.1444C258.963 44.1818 258.472 41.9844 257.832 39.5524C260.861 39.8938 263.08 40.1284 264.488 40.2564C265.939 40.3844 267.496 40.4484 269.16 40.4484C269.629 40.4484 269.907 40.3418 269.992 40.1284C270.077 39.8724 270.12 39.2751 270.12 38.3364H258.856L260.008 16.7684H269.928V15.2324H258.28V4.99245H281.832V25.7284H271.848L271.72 27.3284H281.832V27.4564H283.688V5.31245H317.864V12.0964H296.232V13.2484H317.096V19.2004H296.232V20.4164H317.096V26.3684H296.232V27.4564H319.208V35.2644H312.68L317.096 37.9524C315.517 39.6164 314.365 40.7684 313.64 41.4084C315.176 41.9204 317.267 42.4111 319.912 42.8804ZM283.368 42.3044V35.2644H281.832V38.8484C281.832 40.5551 281.811 41.7711 281.768 42.4964L283.368 42.3044ZM298.28 35.2644H294.248V40.7684C295.485 40.4698 296.296 40.2564 296.68 40.1284L294.504 37.8244L298.28 35.2644ZM305.704 37.5684C306.045 37.1844 306.664 36.4164 307.56 35.2644H302.632C303.571 36.0324 304.595 36.8004 305.704 37.5684Z" fill="url(#paint0_linear_9509_472)"/>
<defs>
<linearGradient id="paint0_linear_9509_472" x1="5.93685" y1="36.0216" x2="314.163" y2="36.0216" gradientUnits="userSpaceOnUse">
<stop stop-color="#E6793B"/>
<stop offset="1" stop-color="#FF4185"/>
</linearGradient>
</defs>
</svg>
