<svg width="606" height="53" viewBox="0 0 606 53" fill="none" xmlns="http://www.w3.org/2000/svg">
<path d="M63.3378 17.6563C61.0764 19.5336 58.4524 22.6483 55.4658 27.0003H58.6018V51.3203H43.1778V50.3603H20.0098V51.3203H4.58575V27.0003H49.7698L46.7618 23.8003L2.53775 26.0403C2.45242 25.2723 2.36708 24.675 2.28175 24.2483C1.72708 19.6403 1.12975 16.035 0.48975 13.4323L9.06575 13.2403L15.8498 1.97631L33.3857 3.06431L27.8178 12.8563L37.7378 12.6003C36.2444 10.5096 34.7298 7.99231 33.1938 5.04831L47.0818 2.10431C49.6418 5.73098 52.3511 8.82431 55.2098 11.3843C58.0684 13.9443 60.7778 16.035 63.3378 17.6563ZM20.0098 36.6003V39.5443H43.1778V36.6003H20.0098ZM98.1058 39.6723H128.186C128.186 41.5496 128.1 43.2776 127.93 44.8563C127.759 47.203 126.564 48.867 124.346 49.8483C122.127 50.787 118.927 51.2563 114.746 51.2563H103.802H96.6978C96.3991 49.8483 95.9084 48.547 95.2258 47.3523C89.8924 46.627 85.1138 46.243 80.8898 46.2003C82.4258 42.275 83.4711 38.7336 84.0258 35.5763H110.778V34.8083H82.1698V32.0563L81.7858 34.0403C80.0791 42.7016 78.8631 48.5256 78.1378 51.5123C72.5911 50.147 68.3457 49.2296 65.4017 48.7603C66.7244 45.091 67.8124 41.571 68.6658 38.2003C69.5191 34.787 70.3511 31.0963 71.1618 27.1283L75.5138 27.8323C72.8258 26.3816 69.6471 25.1656 65.9778 24.1843L71.9298 14.3923C73.9778 14.9896 76.5804 16.0563 79.7378 17.5923L81.8498 18.5523C81.8498 17.2296 81.7431 15.6723 81.5298 13.8803L84.2178 13.7523L85.1778 12.7283C84.4098 11.875 83.5138 10.9576 82.4897 9.97631L79.5458 16.1203C75.1084 14.0723 70.5004 12.579 65.7218 11.6403L71.1618 1.40031C73.0391 1.86964 75.7911 2.85098 79.4178 4.34431L82.6818 5.62431L83.5778 3.70431L84.4097 4.47231C85.1778 3.27764 85.7751 2.14698 86.2018 1.08031L91.1938 2.48831L87.6738 7.73631L88.4418 8.56831C90.0204 6.39231 91.4711 4.04564 92.7938 1.52831L96.8258 2.80831H113.594V6.26431H96.8258V4.60031L95.7378 6.13631C95.1831 7.03231 94.5858 7.90698 93.9458 8.76031L95.5458 8.50431C95.6738 9.65631 95.8231 10.8083 95.9938 11.9603C96.2071 13.1123 96.3564 13.9443 96.4418 14.4563C96.7831 16.419 96.9964 17.763 97.0818 18.4883L93.4978 19.0003L93.3698 17.9123L92.4098 18.1043L92.1538 29.6243H86.0098L86.2018 18.9363L83.2578 19.2563L82.7458 20.2163L85.1778 20.1523V22.2003C85.1778 24.675 85.0498 27.107 84.7938 29.4963C84.4524 29.4536 84.1111 29.411 83.7698 29.3683C83.4711 29.3256 83.1084 29.3043 82.6818 29.3043L82.4897 30.3283H126.65V39.0323H98.2338L98.1058 39.6723ZM113.85 7.28831L115.514 3.70431L116.346 4.47231C117.114 3.27764 117.711 2.14698 118.138 1.08031L123.13 2.48831C121.551 4.87764 120.378 6.60564 119.61 7.67231L120.378 8.56831C121.956 6.47764 123.428 4.13098 124.794 1.52831L128.89 3.70431L125.434 8.82431L127.482 8.50431C127.866 11.7043 128.292 14.5416 128.762 17.0163L129.018 18.4883L125.434 19.0003L125.306 17.9123L124.346 18.1043L124.09 29.6243H117.946L118.138 18.9363C117.711 18.979 116.196 19.1283 113.594 19.3843C113.594 17.2083 113.466 15.3736 113.21 13.8803L116.218 13.7523L117.114 12.7923C116.26 11.7683 115.215 10.6803 113.978 9.52831V11.0643H96.5698V7.28831H113.85ZM124.154 10.7443L122.362 13.5603C122.959 13.5603 123.684 13.5176 124.538 13.4323L124.154 10.7443ZM90.5538 13.5603L92.6018 13.4323C92.5591 12.963 92.4524 12.2163 92.2818 11.1923L90.5538 13.5603ZM97.7858 12.2163H112.57V15.7363H97.7858V12.2163ZM112.57 20.2163H97.7858V16.7603H112.57V20.2163ZM93.2418 29.3043C93.1138 25.507 93.0498 22.3923 93.0498 19.9603L96.3138 19.7683C96.3138 23.6083 96.3564 26.659 96.4418 28.9203C95.8871 29.0483 94.8204 29.1763 93.2418 29.3043ZM128.186 19.7683C128.186 21.475 128.228 22.947 128.314 24.1843C128.399 25.379 128.548 26.9363 128.762 28.8563C126.714 29.1123 125.519 29.2616 125.178 29.3043C125.05 25.507 124.986 22.3923 124.986 19.9603L128.186 19.7683ZM113.722 29.2403C114.02 26.5096 114.17 23.5016 114.17 20.2163L117.114 20.1523V22.2003C117.114 24.675 116.986 27.107 116.73 29.4963C115.023 29.3256 114.02 29.2403 113.722 29.2403ZM78.0738 28.2803L81.5298 28.8563C81.8284 27.363 82.0204 26.0616 82.1058 24.9523C82.1911 23.843 82.2338 22.5416 82.2338 21.0483L78.0738 28.2803ZM113.018 29.6243H97.3378V21.3043H113.018V29.6243ZM106.874 24.8243H103.482V26.3603H106.874V24.8243ZM96.8898 43.7683L96.6338 44.4723C100.516 44.6003 105.188 44.6643 110.65 44.6643C111.588 44.6643 112.228 44.6216 112.57 44.5363C112.954 44.4083 113.167 44.1523 113.21 43.7683H96.8898ZM192.97 3.89631C193.098 9.31498 193.162 14.6056 193.162 19.7683C193.162 24.8456 193.098 29.731 192.97 34.4243C192.884 37.9656 192.287 40.931 191.178 43.3203C190.068 45.7096 187.615 47.7576 183.818 49.4643C180.063 51.171 174.431 52.2163 166.922 52.6003C166.922 50.2963 166.559 47.9496 165.834 45.5603C165.151 43.171 164.148 40.995 162.826 39.0323V49.4643H147.082V50.4243H134.474V5.81631H142.538L143.178 2.36031H155.338L154.634 5.81631H162.826V14.3283C163.807 12.835 164.49 11.1496 164.874 9.27231C165.3 7.39498 165.535 5.11231 165.578 2.42431H178.634V3.89631H192.97ZM177.034 15.8003C176.308 18.7016 175.54 21.0483 174.73 22.8403C176.436 25.3576 178.079 28.3443 179.658 31.8003C179.786 28.899 179.85 26.0403 179.85 23.2243L179.786 15.8003H177.034ZM150.282 21.9443V16.7603H147.082V21.9443H150.282ZM162.826 38.2643C167.775 38.179 171.359 38.0083 173.578 37.7523C175.796 37.4963 177.332 37.0483 178.186 36.4083C179.039 35.7256 179.508 34.659 179.594 33.2083L169.93 37.6243C169.076 35.3203 167.988 32.9096 166.666 30.3923C165.343 27.875 164.127 25.8483 163.018 24.3123L166.602 22.6483C165.62 21.2403 164.362 19.7683 162.826 18.2323V38.2643ZM147.082 32.3763V37.8803H150.282V32.3763H147.082ZM258.906 46.1363C258.906 47.3736 258.586 48.3763 257.946 49.1443C257.306 49.9123 256.047 50.5096 254.17 50.9363C252.335 51.363 249.668 51.5763 246.17 51.5763C246.084 50.8936 246.042 50.3816 246.042 50.0403C245.828 47.6936 245.551 45.7096 245.21 44.0883C244.911 42.4243 244.378 40.9096 243.61 39.5443C243.866 39.587 244.207 39.6083 244.634 39.6083C245.188 39.6083 245.551 39.523 245.722 39.3523C245.935 39.139 246.042 38.819 246.042 38.3923L245.978 34.4883H241.434V34.7443C241.434 38.4563 241.284 41.6563 240.986 44.3443C240.687 47.0323 240.132 49.5283 239.322 51.8323C234.799 49.9976 230.063 48.9096 225.114 48.5683L225.306 48.1843H212.826V50.1683H200.154V3.89631H226.842V44.2803C227.311 42.8723 227.652 41.5923 227.866 40.4403C228.079 39.2883 228.292 37.7736 228.506 35.8963C228.804 33.3363 228.954 29.6243 228.954 24.7603C228.954 22.499 228.868 17.0163 228.698 8.31231L228.57 3.12831H258.714L258.906 46.1363ZM245.85 15.6083L245.786 12.7283H241.434V15.6083H245.85ZM215.386 21.4323V14.4563H212.826V21.4323H215.386ZM241.434 26.5523H245.914V23.5443H241.434V26.5523ZM212.826 30.0083V37.3043H215.386V30.0083H212.826ZM327.274 36.2803C325.482 38.8403 324.18 41.315 323.37 43.7043C322.559 46.051 321.983 48.7176 321.642 51.7043C312.34 50.1683 303.828 46.2856 296.106 40.0563C296.02 40.099 295.892 40.2056 295.722 40.3763C292.692 43.3203 289.002 45.7096 284.65 47.5443C280.298 49.3363 275.263 50.723 269.546 51.7043C269.204 48.7176 268.628 46.051 267.818 43.7043C267.007 41.315 265.706 38.8403 263.914 36.2803C268.01 36.323 271.316 36.131 273.834 35.7043C276.394 35.235 278.74 34.531 280.874 33.5923C282.282 32.995 283.562 32.3123 284.714 31.5443H267.882V19.3843H287.21V16.9523H267.242V4.15231H323.946V16.9523H303.978V19.3843H323.306V31.5443H306.73C307.839 32.227 309.78 33.1443 312.554 34.2963C314.388 35.0216 316.436 35.555 318.698 35.8963C320.959 36.195 323.818 36.323 327.274 36.2803ZM370.198 4.53631H375.83V2.23231H385.494V4.53631H391.51V2.23231H401.75V4.53631H406.934V14.9043H401.75V16.7603H391.51V14.9043H385.494V16.7603H375.83V14.9043H370.198V4.53631ZM371.35 17.7843H405.718V51.6403H394.646V50.7443H382.486V51.6403H371.35V17.7843ZM384.726 29.0483V26.8083H382.486V29.0483H384.726ZM392.342 29.0483H394.646V26.8083H392.342V29.0483ZM384.726 38.2003H382.486V40.8243H384.726V38.2003ZM392.342 40.8243H394.646V38.2003H392.342V40.8243ZM357.334 49.9123H347.542V3.64031H368.79V48.5043H357.334V49.9123ZM358.87 36.4083V14.0723H357.334V36.4083H358.87ZM472.102 30.7123H457.254V38.5843C457.254 38.8403 457.724 38.9683 458.662 38.9683C459.473 38.9683 459.878 38.691 459.878 38.1363C459.878 36.643 459.814 35.427 459.686 34.4883C459.601 33.507 459.537 32.931 459.494 32.7603C462.694 33.315 466.79 33.763 471.782 34.1043V36.0243C471.782 39.267 471.718 41.6776 471.59 43.2563C471.462 44.835 471.164 46.179 470.694 47.2883C470.182 48.4403 469.5 49.2936 468.646 49.8483C467.793 50.3603 466.961 50.7016 466.15 50.8723C465.382 51.0003 464.273 51.107 462.822 51.1923C460.774 51.2776 459.046 51.3203 457.638 51.3203L452.07 51.2563C451.686 51.2136 451.089 51.1923 450.278 51.1923C447.633 51.107 445.734 50.5736 444.582 49.5923C443.473 48.5683 442.918 46.9043 442.918 44.6003V36.6003C439.846 40.739 436.561 43.9816 433.062 46.3283C429.606 48.675 425.404 50.5523 420.454 51.9603C419.942 51.4483 419.58 51.043 419.366 50.7443C417.404 48.6536 415.612 46.8616 413.99 45.3683C412.412 43.875 410.492 42.339 408.23 40.7603C413.052 39.9496 417.233 38.7976 420.774 37.3043C424.316 35.811 427.473 33.6136 430.246 30.7123H412.39V18.9363H415.142C413.948 16.7603 412.71 14.9256 411.43 13.4323C413.606 12.323 415.334 10.8296 416.614 8.95231C417.937 7.03231 418.62 4.89898 418.662 2.55231L433.126 2.68031L432.742 4.85631H435.11V2.29631H449.766V4.85631H469.542V15.9923H449.766V18.9363H472.102V30.7123ZM427.366 15.9923C426.641 16.9736 425.788 17.955 424.806 18.9363H435.11V15.9923H427.366ZM433.766 30.7123L442.918 34.9363V30.7123H433.766ZM539.19 13.1123H526.966V14.6483H538.294V42.2323C538.294 44.8776 538.081 46.7976 537.654 47.9923C537.228 49.1443 536.31 49.955 534.902 50.4243C533.494 50.851 531.19 51.0643 527.99 51.0643C527.905 49.187 527.734 47.4803 527.478 45.9443C527.265 44.3656 526.902 42.7016 526.39 40.9523L527.478 41.0803C527.692 41.0803 527.82 41.0376 527.862 40.9523C527.948 40.867 527.99 40.6963 527.99 40.4403V39.6083H525.366V49.9763H516.982V39.6083H514.23V50.5523H503.926V48.5683C496.374 50.0616 488.353 51.1283 479.862 51.7683C479.564 49.9763 479.116 48.0563 478.518 46.0083C477.964 43.9603 477.366 42.211 476.726 40.7603C480.908 40.7603 483.98 40.7176 485.942 40.6323V30.0083H479.222V23.2883H485.942V22.2003H481.142V20.2803L478.454 22.0083C478.113 19.5336 477.729 17.4216 477.302 15.6723C476.876 13.8803 476.236 12.1096 475.382 10.3603C480.972 9.42164 484.918 6.79764 487.222 2.48831H497.526C497.1 3.59764 496.694 4.49364 496.31 5.17631C498.273 6.28564 500.854 7.22431 504.054 7.99231V4.02431H515.51V2.10431H526.966V4.02431H527.542L529.142 0.632309C530.721 1.40031 532.449 2.53098 534.326 4.02431H539.19V13.1123ZM491.958 11.6403C491.062 12.579 490.145 13.4963 489.206 14.3923H495.158C493.878 13.411 492.812 12.4936 491.958 11.6403ZM515.51 13.1123H504.758C504.673 13.4536 504.502 13.9656 504.246 14.6483H515.51V13.1123ZM496.438 39.7363C497.932 39.5656 500.428 39.2243 503.926 38.7123V15.7363C503.798 16.163 503.436 17.507 502.838 19.7683L501.878 19.1283V22.2003H496.438V23.2883H502.902V30.0083H496.438V39.7363ZM516.982 21.9443H514.23V24.1843H516.982V21.9443ZM525.366 24.1843H527.99V21.9443H525.366V24.1843ZM514.23 30.7763V32.9523H516.982V30.7763H514.23ZM525.366 30.7763V32.9523H527.99V30.7763H525.366ZM478.71 31.2243L484.342 30.9043L484.982 39.2243L479.67 39.6083L478.71 31.2243ZM497.334 38.2643L497.974 30.9043L503.03 31.0963L502.518 38.4563L497.334 38.2643ZM605.318 20.3443C604.508 25.1656 603.953 29.6243 603.654 33.7203L602.502 33.3363V51.9603H591.494V51.3203H585.158V51.9603H574.15V34.3603L572.806 34.6803C572.678 30.5843 572.294 27.0003 571.654 23.9283V24.1203H569.414V25.8483H571.59V35.7043H569.414V37.8163L571.782 37.3683L571.91 48.6323C565.681 49.5283 560.732 50.211 557.062 50.6803C553.436 51.107 549.553 51.4696 545.414 51.7683C545.116 49.3363 544.774 47.267 544.39 45.5603C544.049 43.811 543.494 42.083 542.726 40.3763C544.22 40.3763 545.329 40.355 546.054 40.3123V25.7203H557.062V39.6083L558.534 39.4163V24.1203H545.542V3.83231H571.654V9.52831C573.83 8.76031 575.686 7.84298 577.222 6.77631C578.758 5.66698 580.017 4.17364 580.998 2.29631H590.918L590.47 3.64031L601.286 3.57631L604.422 11.8323C602.758 14.6483 600.71 17.3363 598.278 19.8963C600.284 20.2803 602.63 20.4296 605.318 20.3443ZM571.654 21.9443C575.068 21.9443 578.268 21.3043 581.254 20.0243L579.654 18.0403C577.734 19.4483 575.857 20.579 574.022 21.4323C573.681 18.531 572.892 14.7336 571.654 10.0403V21.9443ZM560.454 12.6003H556.742V15.6723H560.454V12.6003ZM588.422 15.1603C589.404 14.1363 590.129 13.3043 590.598 12.6643H586.246C586.929 13.603 587.654 14.435 588.422 15.1603ZM594.758 30.2643C593.094 29.4536 591.345 28.451 589.51 27.2563C587.846 28.4083 586.204 29.411 584.582 30.2643H594.758ZM585.158 38.7123V41.8483H591.494V38.7123H585.158Z" fill="url(#paint0_linear_4693_2189)"/>
<defs>
<linearGradient id="paint0_linear_4693_2189" x1="8.8646" y1="33.991" x2="593.531" y2="33.991" gradientUnits="userSpaceOnUse">
<stop stop-color="#E6793B"/>
<stop offset="1" stop-color="#FF4185"/>
</linearGradient>
</defs>
</svg>
